{
	"asset":{
		"generator":"Khronos glTF Blender I/O v3.6.28",
		"version":"2.0"
	},
	"scene":0,
	"scenes":[
		{
			"name":"Scene",
			"nodes":[
				0
			]
		}
	],
	"nodes":[
		{
			"mesh":0,
			"name":"Cube",
			"scale":[
				1,
				0.8202852606773376,
				0.6511335968971252
			]
		}
	],
	"meshes":[
		{
			"name":"Cube.001",
			"primitives":[
				{
					"attributes":{
						"POSITION":0,
						"NORMAL":1,
						"TEXCOORD_0":2
					},
					"indices":3
				}
			]
		}
	],
	"accessors":[
		{
			"bufferView":0,
			"componentType":5126,
			"count":10411,
			"max":[
				1,
				2.85648250579834,
				1.106068730354309
			],
			"min":[
				-1,
				-1,
				-1.1060694456100464
			],
			"type":"VEC3"
		},
		{
			"bufferView":1,
			"componentType":5126,
			"count":10411,
			"type":"VEC3"
		},
		{
			"bufferView":2,
			"componentType":5126,
			"count":10411,
			"type":"VEC2"
		},
		{
			"bufferView":3,
			"componentType":5123,
			"count":18750,
			"type":"SCALAR"
		}
	],
	"bufferViews":[
		{
			"buffer":0,
			"byteLength":124932,
			"byteOffset":0,
			"target":34962
		},
		{
			"buffer":0,
			"byteLength":124932,
			"byteOffset":124932,
			"target":34962
		},
		{
			"buffer":0,
			"byteLength":83288,
			"byteOffset":249864,
			"target":34962
		},
		{
			"buffer":0,
			"byteLength":37500,
			"byteOffset":333152,
			"target":34963
		}
	],
	"buffers":[
		{
			"byteLength":370652,
			"uri":"data:application/octet-stream;base64,"
		}
	]
}
